# xmcd
#
# Track frame offsets:
#	150
#	14424
#	33938
#	47787
#	59242
#	72090
#	82529
#	95332
#	109594
#	126290
#	138451
#	149073
#	161898
#	174847
#	189773
#	200907
#	218795
#	229210
#	243924
#	255945
#
# Disc length: 3555 seconds
# Revision: 1
# Processed by: cddbd v1.5.2PL0 Copyright (c) Steve Scherf et al.
# Submitted via: dBpowerAMP V12.0
#
DISCID=1a0de114
DTITLE=Various Artist - Original Hits Country, Disc 1
DYEAR=2009
DGENRE=Country
TTITLE0=Glen Campbell - Rhinestone Cowboy
TTITLE1=Kenny Rogers - Coward of the County
TTITLE2=Bobbie Gentry - Raindrops Keep Falling On My Head
TTITLE3=Crystal Gayle - Never Ending Song of Love
TTITLE4=Lynn Anderson - Rose Garden
TTITLE5=Wanda Jackson - Fancy Satin Pillows
TTITLE6=Billie Jo Spears - Chevrolet
TTITLE7=Don Williams - Desperately
TTITLE8=Dr. Hook - More Like the Movies
TTITLE9=Faron Young - I Fall To Pieces
TTITLE10=George Jones - Take These Chains From My Heart
TTITLE11=Willie Nelson - Crazy
TTITLE12=Barbara Mandrell - I Wish That I Could Fall In Love Today
TTITLE13=Tanya Tucker - Don't You Even Think About Leaving
TTITLE14=Diane Pfeifer - Wishful Drinkin'
TTITLE15=Dottie West - Hey Mr Dream Maker
TTITLE16=Gail Davies - I'll Be There
TTITLE17=Jean Shepard - Sing Me an Old Fashioned Song
TTITLE18=George Jones and Melba Montgomery - We Must Have Been Out of Our Minds
TTITLE19=Slim Whitman - Rose Marie
EXTD=
EXTT0=
EXTT1=
EXTT2=
EXTT3=
EXTT4=
EXTT5=
EXTT6=
EXTT7=
EXTT8=
EXTT9=
EXTT10=
EXTT11=
EXTT12=
EXTT13=
EXTT14=
EXTT15=
EXTT16=
EXTT17=
EXTT18=
EXTT19=
PLAYORDER=
